<svg xmlns="http://www.w3.org/2000/svg"  viewBox="0 0 48 48" width="64px" height="64px"><path fill="#f55376" d="M0,15l8-8h32l8,8L24,43L0,15z"/><path fill="#fadb00" d="M32.413,16.008c-0.094-3.179-3.553-6.006-9.071-6.006c-5.517-0.094-7.679,2.618-7.679,2.618 s-4.384,4.388,9.175,4.388s13.092,5.618,13.092,5.618l5.891-7.013l-3.82-3.927v4.323H32.413z M13.71,10.002H9.783l-5.704,5.704 l0.187,0.187l2.899,3.366C8.754,12.621,13.71,10.002,13.71,10.002z M17.731,31.604l0.187,0.187l6.078,7.107l5.237-6.172 l0.842-1.122C30.169,31.697,24.461,34.697,17.731,31.604z"/><path fill="#fadb00" d="M33.441,12.011c0.468-0.468,0.935-2.008,0.935-2.008h-2.805 C31.478,10.002,32.787,10.982,33.441,12.011z M23.534,29c5.665,0.095,8.185-0.694,9.101-1.525c0.794-0.721,0.228-2.018-0.815-2.268 c-1.12-0.269-3.664-0.662-9.413-0.99c-9.819-0.561-12.344-1.683-12.344-1.683l4.863,5.704C16.329,26.741,20.854,26.202,23.534,29z"/></svg>